<svg xmlns="http://www.w3.org/2000/svg" xmlns:xlink="http://www.w3.org/1999/xlink" width="128" height="128" viewBox="0 0 128 128">
  <defs>
    <clipPath id="clip-redact">
      <rect width="128" height="128"/>
    </clipPath>
  </defs>
  <g id="redact" clip-path="url(#clip-redact)">
    <path id="Path_7" data-name="Path 7" d="M128.286-346.055c-4.647-11.375-4.327-15.826,1.758-22.39s26.9-16.369,26.9-16.369S153.055-357.028,128.286-346.055Z" transform="matrix(-0.438, 0.899, -0.899, -0.438, -187.455, -234.008)"/>
    <path id="Path_8" data-name="Path 8" d="M155.829-255.473H115.162v-57.273c0-.2-.18-20.927,0-30.81.089-4.882,1.077-7.948,3.2-9.943a9.951,9.951,0,0,1,4.4-2.284,26.029,26.029,0,0,1,6.581-.694c1.128,0,2.378.042,3.716.125l.5.031-.027.5c-.325,5.961,1.656,14.059,5.3,21.663,4.135,8.629,10.1,16.092,16.8,21.015l.206.151,0,.256c-.075,8.7,0,56.288,0,56.768Zm-39.667-1h38.666c-.008-5.094-.069-47.206,0-56.023a51.333,51.333,0,0,1-9.722-9.611,63.3,63.3,0,0,1-7.179-11.625,60.777,60.777,0,0,1-4.256-11.808,37.7,37.7,0,0,1-1.162-9.844c-1.133-.062-2.2-.094-3.164-.094-5.054,0-8.325.86-10.293,2.707-1.913,1.8-2.8,4.642-2.887,9.232-.179,9.869,0,30.58,0,30.788Z" transform="translate(-65.495 388.973)"/>
    <path id="Path_12" data-name="Path 12" d="M.5,62.76h-1V0h1Z" transform="translate(64 71.24)"/>
    <path id="Path_12-2" data-name="Path 12" d="M.5,47h-1V0h1Z" transform="translate(75.46 87)"/>
  </g>
</svg>
