<svg xmlns="http://www.w3.org/2000/svg" xmlns:xlink="http://www.w3.org/1999/xlink" width="128" height="128" viewBox="0 0 128 128">
  <defs>
    <clipPath id="clip-highlighter">
      <rect width="128" height="128"/>
    </clipPath>
  </defs>
  <g id="highlighter" clip-path="url(#clip-highlighter)">
    <path id="Path_4" data-name="Path 4" d="M155.829-255.473H115.162v-57.665l.38-.094c.025-.006,2.8-.764,5.677-5.138,2.683-4.076,6-12.191,6.567-27.7l.009-.238.19-.143c2.729-2.059,1.749-7.834,1.739-7.893l-.071-.4.382-.149a95.534,95.534,0,0,0,10.421-4.8l.8-.461-.05.921c-.609,11.17,2.384,12.712,2.414,12.725l.357.146-.05.382a48.306,48.306,0,0,0,.391,12.451c1.01,6.253,3.792,14.867,11.307,20.391l.206.151,0,.256c-.075,8.7,0,56.288,0,56.768Zm-39.667-1h38.666c-.008-5.094-.069-47.207,0-56.023a27.374,27.374,0,0,1-8.06-9.829,38.572,38.572,0,0,1-3.441-11.083A50.294,50.294,0,0,1,142.9-345.8a5.255,5.255,0,0,1-1.535-2.229c-.977-2.338-1.38-5.822-1.2-10.364a100.225,100.225,0,0,1-9.4,4.28c.186,1.422.578,6.134-1.992,8.307a81.371,81.371,0,0,1-2.45,17.943,34.763,34.763,0,0,1-4.354,10.168c-2.485,3.722-4.9,4.953-5.811,5.309Z" transform="translate(-71.495 401.076)"/>
    <path id="Path_5" data-name="Path 5" d="M128.286-346.055c3.005-2.267,1.93-8.378,1.93-8.378a95.42,95.42,0,0,0,10.49-4.836c-.646,11.838,2.725,13.215,2.725,13.215S143.308-346.121,128.286-346.055Z" transform="translate(-71.495 401.076)"/>
    <path id="Path_12" data-name="Path 12" d="M.5,47h-1V0h1Z" transform="translate(64 93.454)"/>
  </g>
</svg>
